#!OML:ASF H:\Terrain\Patient Classification 1\Terrain2\Thursday\justin.ASF
:FULLY-SPECIFIED
:DEGREES
3283
root 8.30638 17.7897 31.1496 -178.025 -1.97711 -180.1
lowerback 5.74951 -0.52645 -2.74489
upperback 3.41887 -1.06645 2.29223
thorax 0.391592 -0.698759 3.96187
lowerneck -11.7486 -3.61523 -8.6835
upperneck 37.9003 1.43897 0.94992
head 15.3017 0.971853 2.57951
rclavicle 1.68967e-014 -6.75868e-015
rhumerus -32.7522 -11.0621 -77.0321
rradius 27.9122
rwrist -9.60062
rhand -22.6415 9.21342
rfingers 7.12502
rthumb 3.78932 -20.7326
lclavicle 1.68967e-014 -6.75868e-015
lhumerus -36.5427 8.94544 82.5344
lradius 30.2924
lwrist 0.605887
lhand -16.986 21.8227
lfingers 7.12502
lthumb 9.24884 -308.4
rfemur -33.8941 -8.32316 21.0786
rtibia 36.2525
rfoot -14.2128 -7.04034
rtoes 0.193478
lfemur 4.70589 3.88421 -23.756
ltibia 13.3458
lfoot -14.2682 -11.1195
ltoes 13.814
3284
root 8.30892 17.7806 31.0865 -177.913 -1.96236 -180.004
lowerback 5.48379 -0.124908 -2.10313
upperback 4.0483 -0.545554 1.92769
thorax 1.12994 -0.462695 3.18714
lowerneck -13.2633 1.05339 -9.61213
upperneck 37.6895 -1.50849 3.68576
head 15.5442 -2.94131 2.64249
rclavicle -1.08338e-014 8.34896e-015
rhumerus -31.9824 -13.2429 -77.0799
rradius 27.5744
rwrist -9.03355
rhand -22.4279 9.46844
rfingers 7.12502
rthumb 3.99556 -20.4738
lclavicle -1.08338e-014 8.34896e-015
lhumerus -34.9694 7.60897 82.7295
lradius 30.0698
lwrist 0.909252
lhand -17.4294 22.072
lfingers 7.12502
lthumb 8.82103 -308.132
rfemur -33.929 -8.08828 21.2856
rtibia 34.2902
rfoot -13.9125 -7.06833
rtoes 0.569056
lfemur 5.15815 4.15135 -23.5826
ltibia 12.668
lfoot -14.2584 -11.2304
ltoes 12.0873
3285
root 8.30838 17.7741 31.0189 -177.943 -2.02233 -180.054
lowerback 5.11354 -0.428932 -2.58242
upperback 3.82424 -0.941 2.16695
thorax 1.14687 -0.660825 3.71873
lowerneck -11.7158 -3.57874 -8.69127
upperneck 37.4992 1.25931 1.19275
head 15.0969 0.904086 2.63148
rclavicle -1.90833e-014 2.18663e-014
rhumerus -32.5548 -12.6874 -76.7406
rradius 27.1102
rwrist -8.78571
rhand -22.0029 9.82397
rfingers 7.12502
rthumb 4.40598 -20.1102
lclavicle -1.90833e-014 2.18663e-014
lhumerus -36.0305 8.65064 82.5376
lradius 30.1798
lwrist 1.08233
lhand -17.7238 21.8741
lfingers 7.12502
lthumb 8.53687 -308.318
rfemur -33.8145 -8.07672 21.3299
rtibia 32.3656
rfoot -13.6462 -7.08791
rtoes -0.0759504
lfemur 5.74578 4.14907 -23.5938
ltibia 12.0476
lfoot -14.2023 -11.2936
ltoes 11.4631
3286
root 8.3059 17.7759 30.9492 -177.89 -2.35312 -180.25
lowerback 5.63331 -0.422461 -2.65624
upperback 3.90012 -0.96001 2.11078
thorax 0.937808 -0.674988 3.71092
lowerneck -12.9677 -3.75926 -8.73581
upperneck 37.938 1.1005 1.20102
head 15.6236 0.784726 2.64407
rclavicle -5.36719e-015 2.10712e-014
rhumerus -32.2499 -13.9087 -76.2447
rradius 26.4425
rwrist -7.15264
rhand -21.5542 9.90578
rfingers 7.12502
rthumb 4.83928 -20.019
lclavicle -5.36719e-015 2.10712e-014
lhumerus -35.5466 8.42693 82.7859
lradius 30.0418
lwrist 1.97353
lhand -18.6606 21.3287
lfingers 7.12502
lthumb 7.63278 -308.829
rfemur -33.7723 -8.1951 21.135
rtibia 30.4834
rfoot -13.1617 -7.06118
rtoes 0.877118
lfemur 6.21146 3.90272 -23.775
ltibia 11.4906
lfoot -14.0158 -11.4153
ltoes 11.9318
3287
root 8.30809 17.7755 30.8802 -177.818 -2.59187 -180.05
lowerback 5.80505 -0.74476 -2.81053
upperback 3.52681 -1.37725 2.41565
thorax 0.505074 -0.867044 4.14258
lowerneck -12.3079 -3.53463 -9.19084
upperneck 38.0539 1.68603 1.1431
head 15.5001 1.00521 2.801
rclavicle -1.82882e-014 2.0276e-014
rhumerus -32.8883 -13.4289 -75.7084
rradius 25.9242
rwrist -5.84365
rhand -21.2571 10.0007
rfingers 7.12502
rthumb 5.12613 -19.9173
lclavicle -1.82882e-014 2.0276e-014
lhumerus -36.4998 9.02172 82.9024
lradius 30.0302
lwrist 3.75473
lhand -20.7901 20.2147
lfingers 7.12502
lthumb 5.57702 -309.879
rfemur -33.7006 -8.11578 21.3619
rtibia 28.6961
rfoot -12.6916 -7.07307
rtoes 1.67527
lfemur 6.72069 3.96485 -23.4662
ltibia 10.7828
lfoot -13.8204 -11.6557
ltoes 11.5936
3288
root 8.31206 17.7681 30.8113 -177.721 -2.65649 -179.85
lowerback 5.53496 -0.848596 -2.70525
upperback 3.45794 -1.4979 2.48621
thorax 0.59459 -0.923828 4.15626
lowerneck -11.8132 -3.45075 -9.3986
upperneck 37.9658 1.81766 1.24922
head 15.3307 1.06854 2.89601
rclavicle 2.78299e-015 1.78906e-014
rhumerus -33.2607 -13.2919 -75.6317
rradius 25.6127
rwrist -5.72664
rhand -21.3276 10.1064
rfingers 7.12502
rthumb 5.05807 -19.8132
lclavicle 2.78299e-015 1.78906e-014
lhumerus -36.691 9.57183 82.6295
lradius 29.6971
lwrist 3.81101
lhand -21.3066 19.1541
lfingers 7.12502
lthumb 5.0783 -310.927
rfemur -33.6738 -7.97799 21.6346
rtibia 26.9948
rfoot -12.7294 -6.74799
rtoes 2.09115
lfemur 7.18945 4.41983 -23.1091
ltibia 10.0939
lfoot -13.8013 -12.0579
ltoes 9.9209
3289
root 8.31189 17.7595 30.7409 -177.577 -2.80415 -180.379
lowerback 4.92307 -0.888401 -3.09678
upperback 3.72027 -1.55568 2.22473
thorax 1.21496 -0.973492 4.08901
lowerneck -11.8231 -3.44852 -9.45799
upperneck 37.7689 1.68208 1.43829
head 15.2374 1.01236 2.95195
rclavicle 5.46658e-015 5.96354e-015
rhumerus -33.0989 -13.8861 -75.638
rradius 25.3192
rwrist -4.95805
rhand -21.0643 10.3912
rfingers 7.12502
rthumb 5.31228 -19.5222
lclavicle 5.46658e-015 5.96354e-015
lhumerus -36.2282 10.159 82.1059
lradius 29.4807
lwrist 2.20635
lhand -19.7878 20.2087
lfingers 7.12502
lthumb 6.54472 -309.912
rfemur -33.7281 -8.19675 21.1663
rtibia 25.3621
rfoot -12.7327 -6.08629
rtoes 0.692335
lfemur 7.56097 4.19424 -23.6772
ltibia 9.57377
lfoot -13.7373 -11.9578
ltoes 9.3818
3290
root 8.3101 17.7541 30.6659 -177.472 -3.01082 -180.527
lowerback 5.32538 -0.919437 -3.32929
upperback 3.50318 -1.60277 2.26013
thorax 0.77956 -0.983477 4.27301
lowerneck -12.1601 -3.49751 -9.52786
upperneck 38.1065 1.76945 1.39494
head 15.4849 1.03502 2.98349
rclavicle -4.57205e-015 -5.56597e-015
rhumerus -33.5087 -13.7854 -75.5104
rradius 25.3119
rwrist -5.30719
rhand -21.2862 10.1151
rfingers 7.12502
rthumb 5.098 -19.8035
lclavicle -4.57205e-015 -5.56597e-015
lhumerus -36.5952 10.6061 81.8412
lradius 29.5591
lwrist 1.17302
lhand -18.8227 21.615
lfingers 7.12502
lthumb 7.47632 -308.537
rfemur -33.729 -8.45477 21.1306
rtibia 23.8894
rfoot -12.4607 -5.53213
rtoes -1.46146
lfemur 8.06331 3.92362 -23.8427
ltibia 8.94515
lfoot -13.4286 -11.9788
ltoes 10.9384
3291
root 8.31245 17.7472 30.5872 -177.38 -3.15866 -180.355
lowerback 5.29262 -0.782805 -2.87192
upperback 3.52382 -1.39642 2.06251
thorax 0.780569 -0.8687 3.79925
lowerneck -12.2576 -3.64035 -9.13709
upperneck 38.0516 1.42365 1.36139
head 15.4969 0.933648 2.84246
rclavicle -9.74045e-015 -6.75868e-015
rhumerus -33.7824 -14.5892 -75.6807
rradius 25.1633
rwrist -6.12802
rhand -21.9759 9.40169
rfingers 7.12502
rthumb 4.43203 -20.5319
lclavicle -9.74045e-015 -6.75868e-015
lhumerus -36.4017 10.2946 81.4576
lradius 29.3573
lwrist 0.469308
lhand -17.8194 21.4418
lfingers 7.12502
lthumb 8.44466 -308.747
rfemur -33.7234 -8.30169 21.3459
rtibia 22.6329
rfoot -12.4361 -5.2875
rtoes -2.26606
lfemur 8.6812 3.71318 -23.5947
ltibia 8.09834
lfoot -12.9769 -12.0011
ltoes 13.4038
3292
root 8.31987 17.7391 30.5083 -177.349 -3.22614 -180.697
lowerback 5.12975 -0.695191 -3.15594
upperback 3.54355 -1.27698 1.82702
thorax 0.882172 -0.809278 3.70688
lowerneck -11.8479 -3.68748 -8.88075
upperneck 37.7742 1.18271 1.37219
head 15.2703 0.878247 2.74576
rclavicle -9.93923e-017 -1.35174e-014
rhumerus -34.177 -15.4168 -75.4986
rradius 24.7775
rwrist -5.42804
rhand -21.5374 9.81102
rfingers 7.12502
rthumb 4.85544 -20.1133
lclavicle -9.93923e-017 -1.35174e-014
lhumerus -36.3885 9.83921 81.394
lradius 29.3192
lwrist 1.12388
lhand -18.1675 20.9543
lfingers 7.12502
lthumb 8.10866 -309.221
rfemur -33.6708 -8.07019 20.9659
rtibia 21.5225
rfoot -12.6529 -5.05688
rtoes -2.93628
lfemur 9.38991 3.56687 -23.8786
ltibia 7.17391
lfoot -12.513 -12.0018
ltoes 14.8853
3293
root 8.32603 17.7318 30.4322 -177.361 -3.3627 -180.929
lowerback 5.13688 -0.606381 -3.26311
upperback 3.87637 -1.18933 1.7217
thorax 1.21391 -0.789954 3.65091
lowerneck -12.6142 1.24272 -10.2493
upperneck 37.4961 -1.25133 3.96885
head 15.2716 -2.89698 2.91321
rclavicle 5.56597e-015 -7.95139e-015
rhumerus -33.9797 -16.0343 -75.3155
rradius 24.5074
rwrist -4.45578
rhand -20.4994 11.3541
rfingers 7.12502
rthumb 5.8577 -18.5449
lclavicle 5.56597e-015 -7.95139e-015
lhumerus -35.6609 9.19479 81.9605
lradius 29.3825
lwrist 3.15043
lhand -20.5862 20.7785
lfingers 7.12502
lthumb 5.77387 -309.32
rfemur -33.597 -8.14765 20.7784
rtibia 20.5644
rfoot -12.8466 -4.56592
rtoes -3.40564
lfemur 10.2051 3.36004 -24.057
ltibia 6.093
lfoot -11.9564 -12.0573
ltoes 15.5469
3294
root 8.32957 17.7219 30.356 -177.352 -3.55595 -180.806
lowerback 5.26414 -0.555607 -3.08942
upperback 3.97358 -1.13076 1.7494
thorax 1.2349 -0.76469 3.58063
lowerneck -13.0403 1.11869 -10.2976
upperneck 37.5773 -1.33064 4.00238
head 15.4239 -2.91389 2.93016
rclavicle 3.58806e-014 -3.4191e-014
rhumerus -34.0895 -16.247 -75.2224
rradius 24.3241
rwrist -4.27632
rhand -20.3951 12.1147
rfingers 7.12502
rthumb 5.95841 -17.7815
lclavicle 3.58806e-014 -3.4191e-014
lhumerus -35.3136 9.37481 81.9388
lradius 29.1554
lwrist 2.89689
lhand -20.7262 20.6224
lfingers 7.12502
lthumb 5.63874 -309.473
rfemur -33.563 -8.31161 20.9866
rtibia 19.7974
rfoot -13.0382 -4.0587
rtoes -4.26442
lfemur 11.1201 3.10874 -23.8792
ltibia 4.79952
lfoot -11.3308 -12.0958
ltoes 15.7554
3295
root 8.33389 17.7126 30.278 -177.321 -3.75142 -180.836
lowerback 5.21996 -0.535697 -3.08904
upperback 4.00539 -1.10274 1.6869
thorax 1.28851 -0.751372 3.5134
lowerneck -13.0058 1.09311 -10.119
upperneck 37.5225 -1.38071 3.94577
head 15.3921 -2.90691 2.86717
rclavicle -6.95746e-015 -1.63003e-014
rhumerus -34.181 -16.7653 -75.1995
rradius 24.0302
rwrist -4.15989
rhand -20.7144 11.749
rfingers 7.12502
rthumb 5.6501 -18.1557
lclavicle -6.95746e-015 -1.63003e-014
lhumerus -35.2287 10.0956 81.359
lradius 28.8675
lwrist 1.09697
lhand -18.9001 20.3229
lfingers 7.12502
lthumb 7.40154 -309.827
rfemur -33.566 -8.44101 21.0328
rtibia 19.1801
rfoot -13.1488 -3.72718
rtoes -5.71824
lfemur 12.1242 2.85227 -23.8905
ltibia 3.35088
lfoot -10.7629 -12.0104
ltoes 14.3725
